<svg width="25" height="25" viewBox="0 0 25 25" fill="none" xmlns="http://www.w3.org/2000/svg">
<g id="Group">
<g id="Group_2">
<path id="Vector" d="M6.87054 1V4.43658" stroke="#FF6565" stroke-width="2" stroke-miterlimit="10" stroke-linecap="round" stroke-linejoin="round"/>
<path id="Vector_2" d="M16.2634 1V4.43658" stroke="#FF6565" stroke-width="2" stroke-miterlimit="10" stroke-linecap="round" stroke-linejoin="round"/>
<path id="Vector_3" d="M18.8465 23.2232C20.9215 23.2232 22.6037 21.582 22.6037 19.5575C22.6037 17.533 20.9215 15.8918 18.8465 15.8918C16.7715 15.8918 15.0894 17.533 15.0894 19.5575C15.0894 21.582 16.7715 23.2232 18.8465 23.2232Z" stroke="#FF6565" stroke-width="2" stroke-linecap="round" stroke-linejoin="round"/>
<path id="Vector_4" d="M23.3081 23.9105L22.134 22.765" stroke="#FF6565" stroke-width="2" stroke-linecap="round" stroke-linejoin="round"/>
<path id="Vector_5" d="M1.58704 9.12173H21.5469" stroke="#FF6565" stroke-width="2" stroke-miterlimit="10" stroke-linecap="round" stroke-linejoin="round"/>
<path id="Vector_6" d="M13.1755 23.9105H6.87056C2.76117 23.9105 1 21.6195 1 18.1829V8.44592C1 5.00934 2.76117 2.71829 6.87056 2.71829H16.2634C20.3728 2.71829 22.134 5.00934 22.134 8.44592V13.6008" stroke="#FF6565" stroke-width="2" stroke-miterlimit="10" stroke-linecap="round" stroke-linejoin="round"/>
</g>
<path id="Vector_7" d="M11.5618 14.4026H11.5715" stroke="#FF6565" stroke-width="2" stroke-linecap="round" stroke-linejoin="round"/>
<path id="Vector_8" d="M7.21613 14.4026H7.22586" stroke="#FF6565" stroke-width="2" stroke-linecap="round" stroke-linejoin="round"/>
<path id="Vector_9" d="M7.21613 17.8392H7.22586" stroke="#FF6565" stroke-width="2" stroke-linecap="round" stroke-linejoin="round"/>
</g>
</svg>
