<svg width="49" height="45" viewBox="0 0 49 45" fill="none" xmlns="http://www.w3.org/2000/svg">
<g id="&#240;&#159;&#166;&#134; icon &#34;heart&#34;" filter="url(#filter0_d_176_2774)">
<path id="Vector" d="M33.602 0C29.8915 0 26.5705 1.82921 24.5 4.63538C22.4295 1.82921 19.1085 0 15.398 0C9.1045 0 4 5.19662 4 11.6196C4 14.0932 4.3895 16.3798 5.066 18.5C8.305 28.8933 18.2885 35.1084 23.229 36.8129C23.926 37.0624 25.074 37.0624 25.771 36.8129C30.7115 35.1084 40.695 28.8933 43.934 18.5C44.6105 16.3798 45 14.0932 45 11.6196C45 5.19662 39.8955 0 33.602 0Z" fill="#FF5252"/>
</g>
<defs>
<filter id="filter0_d_176_2774" x="0" y="0" width="49" height="45" filterUnits="userSpaceOnUse" color-interpolation-filters="sRGB">
<feFlood flood-opacity="0" result="BackgroundImageFix"/>
<feColorMatrix in="SourceAlpha" type="matrix" values="0 0 0 0 0 0 0 0 0 0 0 0 0 0 0 0 0 0 127 0" result="hardAlpha"/>
<feOffset dy="4"/>
<feGaussianBlur stdDeviation="2"/>
<feComposite in2="hardAlpha" operator="out"/>
<feColorMatrix type="matrix" values="0 0 0 0 1 0 0 0 0 0.216667 0 0 0 0 0.216667 0 0 0 0.25 0"/>
<feBlend mode="normal" in2="BackgroundImageFix" result="effect1_dropShadow_176_2774"/>
<feBlend mode="normal" in="SourceGraphic" in2="effect1_dropShadow_176_2774" result="shape"/>
</filter>
</defs>
</svg>
