<svg width="37" height="37" viewBox="0 0 37 37" fill="none" xmlns="http://www.w3.org/2000/svg">
<path d="M6.46526 12.7407C4.61621 15.2665 2.93861 21.3693 1.46426 26.9215C0.621881 30.0938 2.04751 33.513 5.17512 34.5085C13.1684 37.0529 23.437 37.2299 31.8128 34.5345C34.9462 33.5262 36.3549 30.0893 35.4338 26.9291C33.5997 20.6358 31.3033 13.0616 30.3011 11.8121C28.9768 10.1613 20.1747 9.33582 18.3832 9.33582H18.3831C16.5915 9.33582 8.95788 9.33582 6.46526 12.7407Z" fill="white" stroke="black"/>
<path d="M7.21021 13.792C7.21021 13.792 9.77174 16.3828 18.5474 16.3828C27.323 16.3828 29.8846 13.792 29.8846 13.792" stroke="black" stroke-opacity="0.5" stroke-width="0.5"/>
<path d="M10.6375 11.483C12.1407 11.3567 14.1063 12.1144 15.1469 11.104C16.1876 10.0936 20.6969 10.7251 22.7782 11.104C24.8594 11.4829 27.7501 11.2304 28.9063 12.1145C29.2416 12.3709 29.4214 12.6485 29.4963 12.9227C29.8006 14.0372 29.0581 15.1237 29.4098 16.2242C29.9338 17.8635 30.684 20.2132 30.7563 21.0818C30.8719 22.4711 30.7563 25.5023 29.7157 25.5023C28.6751 25.5023 27.6344 24.113 27.1719 21.7133C26.9406 20.5132 26.9406 19.3284 26.9405 18.2307V18.2097C26.9404 16.3867 25.7073 14.5466 23.8846 14.5157C23.8261 14.5147 23.7656 14.5142 23.7032 14.5142C21.7376 14.5142 21.6219 15.1457 19.0782 14.7668C16.5344 14.3879 16.3032 13.7564 14.8001 13.6301C13.2969 13.5038 11.6782 13.7564 10.1751 13.1249C8.67193 12.4934 9.13442 11.6093 10.6375 11.483Z" fill="#FFCD4B" stroke="black" stroke-opacity="0.5" stroke-width="0.5"/>
<path d="M14.9734 1C17.0949 1 18.3844 4.00866 18.3844 4.00866C18.3844 4.00866 18.9828 1 21.7953 1C24.0693 1 25.2063 3.48992 25.2063 5.04536C25.2063 8.88475 18.3844 12.6196 18.3844 12.6196C18.3844 12.6196 11.5625 8.9885 11.5625 5.04536C11.5625 3.07494 12.852 1 14.9734 1Z" fill="#FF5959" stroke="black" stroke-opacity="0.5" stroke-width="0.5"/>
</svg>
